<svg xmlns="http://www.w3.org/2000/svg" viewBox="0 0 600 800" preserveAspectRatio="xMidYMid slice"><defs>
<radialGradient id="bg" cx="50%" cy="36%" r="78%"><stop offset="0" stop-color="#ff7a6b" stop-opacity=".55"/><stop offset=".42" stop-color="#2a1210"/><stop offset="1" stop-color="#050b0e"/></radialGradient>
<linearGradient id="sea" x1="0" y1="0" x2="0" y2="1"><stop offset="0" stop-color="#ff7a6b" stop-opacity=".35"/><stop offset="1" stop-color="#050b0e" stop-opacity="0"/></linearGradient>
<radialGradient id="iris" cx="50%" cy="70%" r="70%"><stop offset="0" stop-color="#9c918b"/><stop offset=".6" stop-color="#3a2418"/><stop offset="1" stop-color="#140c08"/></radialGradient>
<linearGradient id="thobe" x1="0" y1="0" x2="1" y2="0"><stop offset="0" stop-color="#ffffff"/><stop offset=".6" stop-color="#eef2f5"/><stop offset="1" stop-color="#c9d4dd"/></linearGradient>
<linearGradient id="bodyShade" x1="0" y1="0" x2="1" y2="0"><stop offset=".55" stop-color="#000" stop-opacity="0"/><stop offset="1" stop-color="#000" stop-opacity=".32"/></linearGradient>
<linearGradient id="clothShade" x1="0" y1="0" x2="1" y2="0"><stop offset="0" stop-color="#000" stop-opacity=".05"/><stop offset=".6" stop-color="#000" stop-opacity="0"/><stop offset="1" stop-color="#000" stop-opacity=".35"/></linearGradient>
<pattern id="shemagh" width="16" height="16" patternUnits="userSpaceOnUse" patternTransform="rotate(45)"><rect width="16" height="16" fill="#f3eee9"/><rect width="8" height="8" fill="#c8102e"/><rect x="8" y="8" width="8" height="8" fill="#c8102e"/><rect x="3" y="3" width="2" height="2" fill="#f3eee9"/></pattern>
<linearGradient id="ghutra" x1="0" y1="0" x2="0" y2="1"><stop offset="0" stop-color="#ffffff"/><stop offset="1" stop-color="#e3e8ec"/></linearGradient>
<clipPath id="faceClip"><path d="M203 292 C203 202 397 202 397 292 C397 348 388 386 364 414 C344 436 322 448 300 450 C278 448 256 436 236 414 C212 386 203 348 203 292 Z"/></clipPath>
<filter id="rim" x="-20%" y="-20%" width="140%" height="140%"><feGaussianBlur stdDeviation="9"/></filter>
<filter id="soft"><feGaussianBlur stdDeviation="2"/></filter>
</defs><rect width="600" height="800" fill="url(#bg)"/><g fill="#fff" opacity=".7"><circle cx="70" cy="90" r="1.6"/><circle cx="520" cy="70" r="1.3"/><circle cx="470" cy="190" r="1.9"/><circle cx="120" cy="240" r="1.1"/><circle cx="555" cy="300" r="1.5"/><circle cx="40" cy="330" r="1.2"/></g><rect y="560" width="600" height="240" fill="url(#sea)"/><path d="M0 560 H600" stroke="#ff7a6b" stroke-opacity=".35" stroke-width="2"/><g fill="#050b0e" opacity=".85"><path d="M40 800 C52 700 60 620 78 540 L86 542 C72 620 66 700 58 800 Z"/><path d="M82 540 C40 520 10 530 -10 552 C30 528 60 534 80 546 Z M82 540 C110 500 150 496 176 510 C140 506 110 516 86 546 Z M82 540 C60 500 30 486 0 490 C36 494 62 510 80 544 Z M82 540 C120 530 150 546 166 570 C136 548 112 544 86 546 Z"/><path d="M560 800 C548 710 540 640 522 570 L514 572 C528 640 536 710 544 800 Z"/><path d="M518 570 C560 552 590 560 610 580 C570 558 540 564 520 576 Z M518 570 C490 532 450 528 424 542 C460 538 490 548 514 576 Z M518 570 C540 532 572 520 600 524 C564 528 538 544 520 574 Z"/></g><g transform="translate(300 600) scale(1.12) translate(-300 -600)"><g fill="#ff7a6b" filter="url(#rim)" transform="translate(-8 -6)" opacity=".9"><path d="M55 800 C66 628 166 548 262 512 L338 512 C434 548 534 628 545 800 Z"/><path d="M203 292 C203 202 397 202 397 292 C397 348 388 386 364 414 C344 436 322 448 300 450 C278 448 256 436 236 414 C212 386 203 348 203 292 Z"/><path d="M300 138 C182 140 146 236 158 332 C166 410 150 480 116 580 L484 580 C450 480 434 410 442 332 C454 236 418 140 300 138 Z"/></g><path d="M55 800 C66 628 166 548 262 512 L338 512 C434 548 534 628 545 800 Z" fill="url(#thobe)"/><path d="M55 800 C66 628 166 548 262 512 L338 512 C434 548 534 628 545 800 Z" fill="url(#bodyShade)"/><path d="M252 486 Q300 506 348 486 L352 516 Q300 536 248 516 Z" fill="#f7f9fb" stroke="#c7d0d8" stroke-width="2"/><path d="M300 534 L300 800" stroke="#c3ccd4" stroke-width="3"/><circle cx="309" cy="556" r="4" fill="#dfe5ea" stroke="#b7c1ca"/><circle cx="309" cy="590" r="4" fill="#dfe5ea" stroke="#b7c1ca"/><circle cx="309" cy="624" r="4" fill="#dfe5ea" stroke="#b7c1ca"/><path d="M372 632 L446 624 L452 700 L378 708 Z" fill="none" stroke="#c3ccd4" stroke-width="3"/><rect x="392" y="604" width="9" height="34" rx="3" fill="#20232a"/><rect x="392" y="604" width="9" height="8" rx="3" fill="#c9a24a"/><path d="M264 398 L266 522 Q300 548 334 522 L336 398 Z" fill="#b98060"/><path d="M264 420 Q300 470 336 420 L336 470 Q300 500 264 470 Z" fill="#90634a" opacity=".7"/><ellipse cx="200" cy="332" rx="14" ry="24" fill="#94664c"/><ellipse cx="400" cy="332" rx="14" ry="24" fill="#94664c"/><path d="M203 292 C203 202 397 202 397 292 C397 348 388 386 364 414 C344 436 322 448 300 450 C278 448 256 436 236 414 C212 386 203 348 203 292 Z" fill="#b98060"/><g clip-path="url(#faceClip)"><path d="M338 190 C400 250 408 340 356 452 L440 470 L440 190 Z" fill="#94664c" opacity=".55"/><ellipse cx="300" cy="238" rx="120" ry="30" fill="#94664c" opacity=".45"/></g><ellipse cx="246" cy="366" rx="18" ry="7" fill="#ff8a7a" opacity=".22"/><ellipse cx="354" cy="366" rx="18" ry="7" fill="#ff8a7a" opacity=".22"/><path d="M207 300 C205 390 238 468 300 482 C362 468 395 390 393 300 L380 306 C378 350 362 378 340 384 C324 380 312 378 300 378 C288 378 276 380 260 384 C238 378 222 350 220 306 Z" fill="#9a948e"/><path d="M268 384 Q300 370 332 384 Q318 392 300 388 Q282 392 268 384 Z" fill="#a9a49e"/><path d="M304 346 Q312 366 300 372" fill="none" stroke="#724f3b" stroke-width="3" stroke-linecap="round"/><path d="M292 372 Q298 376 304 372" fill="none" stroke="#6f4c39" stroke-width="2" opacity=".6"/><path d="M276 392 Q300 412 324 392" fill="none" stroke="#654634" stroke-width="4" stroke-linecap="round"/><g transform="translate(254 322) scale(1.14) translate(-254 -322)"><clipPath id="ec254"><path d="M227 325 C236 307 272 306 281 319 C274 341 236 343 227 325 Z"/></clipPath><path d="M227 325 C236 307 272 306 281 319 C274 341 236 343 227 325 Z" fill="#fbfbff"/><g clip-path="url(#ec254)"><ellipse cx="254" cy="327" rx="14" ry="17" fill="url(#iris)"/><ellipse cx="254" cy="328" rx="6.5" ry="8.5" fill="#120a08"/><rect x="224" y="302" width="60" height="9" fill="#1a100c" opacity=".18"/><circle cx="249" cy="322" r="4.2" fill="#fff"/><circle cx="260" cy="333" r="2" fill="#fff" opacity=".9"/></g><path d="M225 325 C236 305 273 304 284 317" fill="none" stroke="#1a100c" stroke-width="5" stroke-linecap="round"/><path d="M227 325 l-9 -5" stroke="#1a100c" stroke-width="3" stroke-linecap="round"/><path d="M237 341 Q254 345 270 338" fill="none" stroke="#1a100c" stroke-width="1.8" opacity=".55" stroke-linecap="round"/></g><g transform="translate(346 322) scale(1.14) translate(-346 -322)"><g transform="translate(692 0) scale(-1 1)"><clipPath id="ecr346"><path d="M319 325 C328 307 364 306 373 319 C366 341 328 343 319 325 Z"/></clipPath><path d="M319 325 C328 307 364 306 373 319 C366 341 328 343 319 325 Z" fill="#fbfbff"/><g clip-path="url(#ecr346)"><ellipse cx="346" cy="327" rx="14" ry="17" fill="url(#iris)"/><ellipse cx="346" cy="328" rx="6.5" ry="8.5" fill="#120a08"/><rect x="316" y="302" width="60" height="9" fill="#1a100c" opacity=".18"/><circle cx="341" cy="322" r="4.2" fill="#fff"/><circle cx="352" cy="333" r="2" fill="#fff" opacity=".9"/></g><path d="M317 325 C328 305 365 304 376 317" fill="none" stroke="#1a100c" stroke-width="5" stroke-linecap="round"/><path d="M319 325 l-9 -5" stroke="#1a100c" stroke-width="3" stroke-linecap="round"/><path d="M329 341 Q346 345 362 338" fill="none" stroke="#1a100c" stroke-width="1.8" opacity=".55" stroke-linecap="round"/></g></g><path d="M226 289 Q254 278 278 287" fill="none" stroke="#9a948e" stroke-width="7" stroke-linecap="round"/><g transform="translate(692 0) scale(-1 1)"><path d="M318 289 Q346 278 370 287" fill="none" stroke="#9a948e" stroke-width="7" stroke-linecap="round"/></g><path d="M300 138 C182 140 146 236 158 332 C166 410 150 480 116 580 L206 606 C220 530 226 466 222 404 L214 306 C220 250 258 230 300 230 C342 230 380 250 386 306 L378 404 C374 466 380 530 394 606 L484 580 C450 480 434 410 442 332 C454 236 418 140 300 138 Z" fill="url(#shemagh)"/><path d="M300 138 C182 140 146 236 158 332 C166 410 150 480 116 580 L206 606 C220 530 226 466 222 404 L214 306 C220 250 258 230 300 230 C342 230 380 250 386 306 L378 404 C374 466 380 530 394 606 L484 580 C450 480 434 410 442 332 C454 236 418 140 300 138 Z" fill="url(#clothShade)"/><path d="M214 306 C220 250 258 230 300 230 C342 230 380 250 386 306" fill="none" stroke="#b3122a" stroke-width="5" opacity=".7"/><path d="M180 206 Q300 176 420 206" fill="none" stroke="#141414" stroke-width="11" stroke-linecap="round"/><path d="M170 222 Q300 262 430 222" fill="none" stroke="#0c0c0c" stroke-width="15" stroke-linecap="round"/><path d="M176 238 Q300 280 424 238" fill="none" stroke="#141414" stroke-width="13" stroke-linecap="round"/><path d="M200 232 Q300 262 400 232" fill="none" stroke="#555" stroke-width="3" opacity=".6" stroke-linecap="round"/><rect x="221" y="300" width="66" height="48" rx="16" fill="rgba(200,230,255,.12)" stroke="#2a2a2e" stroke-width="4"/><path d="M232 308 l14 -4" stroke="#fff" stroke-width="3" opacity=".55" stroke-linecap="round"/><rect x="313" y="300" width="66" height="48" rx="16" fill="rgba(200,230,255,.12)" stroke="#2a2a2e" stroke-width="4"/><path d="M324 308 l14 -4" stroke="#fff" stroke-width="3" opacity=".55" stroke-linecap="round"/><path d="M287 318 Q300 310 313 318" fill="none" stroke="#2a2a2e" stroke-width="4"/><path d="M221 314 L200 318" stroke="#2a2a2e" stroke-width="4"/><path d="M379 314 L400 318" stroke="#2a2a2e" stroke-width="4"/><path d="M218 330 l-10 4 M382 330 l10 4" stroke="#6f4c39" stroke-width="2" stroke-linecap="round" opacity=".6"/></g></svg>