<svg xmlns="http://www.w3.org/2000/svg" viewBox="0 0 600 800" preserveAspectRatio="xMidYMid slice"><defs>
<radialGradient id="bg" cx="50%" cy="36%" r="78%"><stop offset="0" stop-color="#ff9f43" stop-opacity=".55"/><stop offset=".42" stop-color="#2a1a10"/><stop offset="1" stop-color="#050b0e"/></radialGradient>
<linearGradient id="sea" x1="0" y1="0" x2="0" y2="1"><stop offset="0" stop-color="#ff9f43" stop-opacity=".35"/><stop offset="1" stop-color="#050b0e" stop-opacity="0"/></linearGradient>
<radialGradient id="iris" cx="50%" cy="70%" r="70%"><stop offset="0" stop-color="#e1b48c"/><stop offset=".6" stop-color="#c46a1a"/><stop offset="1" stop-color="#140c08"/></radialGradient>
<linearGradient id="thobe" x1="0" y1="0" x2="1" y2="0"><stop offset="0" stop-color="#ffffff"/><stop offset=".6" stop-color="#eef2f5"/><stop offset="1" stop-color="#c9d4dd"/></linearGradient>
<linearGradient id="bodyShade" x1="0" y1="0" x2="1" y2="0"><stop offset=".55" stop-color="#000" stop-opacity="0"/><stop offset="1" stop-color="#000" stop-opacity=".32"/></linearGradient>
<linearGradient id="clothShade" x1="0" y1="0" x2="1" y2="0"><stop offset="0" stop-color="#000" stop-opacity=".05"/><stop offset=".6" stop-color="#000" stop-opacity="0"/><stop offset="1" stop-color="#000" stop-opacity=".35"/></linearGradient>
<pattern id="shemagh" width="16" height="16" patternUnits="userSpaceOnUse" patternTransform="rotate(45)"><rect width="16" height="16" fill="#f3eee9"/><rect width="8" height="8" fill="#c8102e"/><rect x="8" y="8" width="8" height="8" fill="#c8102e"/><rect x="3" y="3" width="2" height="2" fill="#f3eee9"/></pattern>
<linearGradient id="ghutra" x1="0" y1="0" x2="0" y2="1"><stop offset="0" stop-color="#ffffff"/><stop offset="1" stop-color="#e3e8ec"/></linearGradient>
<clipPath id="faceClip"><path d="M205 292 C205 204 395 204 395 292 C395 344 384 380 360 408 C340 430 318 443 300 445 C282 443 260 430 240 408 C216 380 205 344 205 292 Z"/></clipPath>
<filter id="rim" x="-20%" y="-20%" width="140%" height="140%"><feGaussianBlur stdDeviation="9"/></filter>
<filter id="soft"><feGaussianBlur stdDeviation="2"/></filter>
</defs><rect width="600" height="800" fill="url(#bg)"/><g fill="#fff" opacity=".7"><circle cx="70" cy="90" r="1.6"/><circle cx="520" cy="70" r="1.3"/><circle cx="470" cy="190" r="1.9"/><circle cx="120" cy="240" r="1.1"/><circle cx="555" cy="300" r="1.5"/><circle cx="40" cy="330" r="1.2"/></g><rect y="560" width="600" height="240" fill="url(#sea)"/><path d="M0 560 H600" stroke="#ff9f43" stroke-opacity=".35" stroke-width="2"/><g fill="#050b0e" opacity=".85"><path d="M40 800 C52 700 60 620 78 540 L86 542 C72 620 66 700 58 800 Z"/><path d="M82 540 C40 520 10 530 -10 552 C30 528 60 534 80 546 Z M82 540 C110 500 150 496 176 510 C140 506 110 516 86 546 Z M82 540 C60 500 30 486 0 490 C36 494 62 510 80 544 Z M82 540 C120 530 150 546 166 570 C136 548 112 544 86 546 Z"/><path d="M560 800 C548 710 540 640 522 570 L514 572 C528 640 536 710 544 800 Z"/><path d="M518 570 C560 552 590 560 610 580 C570 558 540 564 520 576 Z M518 570 C490 532 450 528 424 542 C460 538 490 548 514 576 Z M518 570 C540 532 572 520 600 524 C564 528 538 544 520 574 Z"/></g><g transform="translate(300 600) scale(1.12) translate(-300 -600)"><g fill="#ff9f43" filter="url(#rim)" transform="translate(-8 -6)" opacity=".9"><path d="M55 800 C66 628 166 548 262 512 L338 512 C434 548 534 628 545 800 Z"/><path d="M205 292 C205 204 395 204 395 292 C395 344 384 380 360 408 C340 430 318 443 300 445 C282 443 260 430 240 408 C216 380 205 344 205 292 Z"/><path d="M178 330 C150 290 150 230 184 214 C168 170 214 132 250 146 C262 110 318 104 340 134 C370 110 424 136 420 182 C454 196 460 262 428 296 C436 318 430 334 420 340 Z" /></g><path d="M178 330 C150 290 150 230 184 214 C168 170 214 132 250 146 C262 110 318 104 340 134 C370 110 424 136 420 182 C454 196 460 262 428 296 C436 318 430 334 420 340 Z" fill="#8a3d17"/><path d="M55 800 C66 628 166 548 262 512 L338 512 C434 548 534 628 545 800 Z" fill="#e9e3d6"/><path d="M55 800 C66 628 166 548 262 512 L338 512 C434 548 534 628 545 800 Z" fill="url(#bodyShade)"/><path d="M150 600 C170 560 230 530 262 516 L280 800 L120 800 Z" fill="#6b4a2a"/><path d="M450 600 C430 560 370 530 338 516 L320 800 L480 800 Z" fill="#6b4a2a"/><path d="M262 512 Q300 548 338 512" fill="none" stroke="#b9b1a0" stroke-width="6"/><path d="M264 398 L266 522 Q300 548 334 522 L336 398 Z" fill="#e6b48c"/><path d="M264 420 Q300 470 336 420 L336 470 Q300 500 264 470 Z" fill="#b38c6d" opacity=".7"/><ellipse cx="200" cy="332" rx="14" ry="24" fill="#b89070"/><ellipse cx="400" cy="332" rx="14" ry="24" fill="#b89070"/><path d="M205 292 C205 204 395 204 395 292 C395 344 384 380 360 408 C340 430 318 443 300 445 C282 443 260 430 240 408 C216 380 205 344 205 292 Z" fill="#e6b48c"/><g clip-path="url(#faceClip)"><path d="M338 190 C400 250 408 340 356 452 L440 470 L440 190 Z" fill="#b89070" opacity=".55"/><ellipse cx="300" cy="238" rx="120" ry="30" fill="#b89070" opacity=".45"/></g><ellipse cx="246" cy="366" rx="18" ry="7" fill="#ff8a7a" opacity=".22"/><ellipse cx="354" cy="366" rx="18" ry="7" fill="#ff8a7a" opacity=".22"/><path d="M304 346 Q312 366 300 372" fill="none" stroke="#8e6f56" stroke-width="3" stroke-linecap="round"/><path d="M292 372 Q298 376 304 372" fill="none" stroke="#8a6c54" stroke-width="2" opacity=".6"/><path d="M270 390 Q300 432 330 390 Q300 398 270 390 Z" fill="#5a1d1d"/><path d="M274 392 Q300 400 326 392 L323 400 Q300 407 277 400 Z" fill="#fff"/><path d="M284 416 Q300 424 316 416" fill="none" stroke="#c25a5a" stroke-width="4" stroke-linecap="round"/><g transform="translate(254 322) scale(1.14) translate(-254 -322)"><clipPath id="ec254"><path d="M227 327 C238 312 270 307 282 314 C274 338 238 341 227 327 Z"/></clipPath><path d="M227 327 C238 312 270 307 282 314 C274 338 238 341 227 327 Z" fill="#fbfbff"/><g clip-path="url(#ec254)"><ellipse cx="254" cy="327" rx="14" ry="17" fill="url(#iris)"/><ellipse cx="254" cy="328" rx="6.5" ry="8.5" fill="#120a08"/><rect x="224" y="302" width="60" height="9" fill="#1a100c" opacity=".18"/><circle cx="249" cy="322" r="4.2" fill="#fff"/><circle cx="260" cy="333" r="2" fill="#fff" opacity=".9"/></g><path d="M225 327 C238 310 270 305 285 312" fill="none" stroke="#1a100c" stroke-width="5" stroke-linecap="round"/><path d="M227 325 l-9 -5" stroke="#1a100c" stroke-width="3" stroke-linecap="round"/><path d="M237 341 Q254 345 270 338" fill="none" stroke="#1a100c" stroke-width="1.8" opacity=".55" stroke-linecap="round"/></g><g transform="translate(346 322) scale(1.14) translate(-346 -322)"><g transform="translate(692 0) scale(-1 1)"><clipPath id="ecr346"><path d="M319 327 C330 312 362 307 374 314 C366 338 330 341 319 327 Z"/></clipPath><path d="M319 327 C330 312 362 307 374 314 C366 338 330 341 319 327 Z" fill="#fbfbff"/><g clip-path="url(#ecr346)"><ellipse cx="346" cy="327" rx="14" ry="17" fill="url(#iris)"/><ellipse cx="346" cy="328" rx="6.5" ry="8.5" fill="#120a08"/><rect x="316" y="302" width="60" height="9" fill="#1a100c" opacity=".18"/><circle cx="341" cy="322" r="4.2" fill="#fff"/><circle cx="352" cy="333" r="2" fill="#fff" opacity=".9"/></g><path d="M317 327 C330 310 362 305 377 312" fill="none" stroke="#1a100c" stroke-width="5" stroke-linecap="round"/><path d="M319 325 l-9 -5" stroke="#1a100c" stroke-width="3" stroke-linecap="round"/><path d="M329 341 Q346 345 362 338" fill="none" stroke="#1a100c" stroke-width="1.8" opacity=".55" stroke-linecap="round"/></g></g><path d="M225 288 Q254 278 279 289" fill="none" stroke="#8a3d17" stroke-width="7" stroke-linecap="round"/><g transform="translate(692 0) scale(-1 1)"><path d="M317 288 Q346 278 371 289" fill="none" stroke="#8a3d17" stroke-width="7" stroke-linecap="round"/></g><path d="M206 276 L222 214 L246 250 L262 196 L284 248 L304 190 L322 246 L344 196 L358 250 L382 214 L396 276 C380 256 360 250 340 254 L300 262 L260 254 C240 250 220 256 206 276 Z" fill="#8a3d17"/><path d="M250 204 C280 186 320 186 350 200" fill="none" stroke="#b28068" stroke-width="4" opacity=".5" stroke-linecap="round"/><path d="M352 280 L366 340" stroke="#b86a5a" stroke-width="4" stroke-linecap="round"/></g></svg>